<svg version="1.1" id="Layer_1" xmlns="http://www.w3.org/2000/svg" xmlns:xlink="http://www.w3.org/1999/xlink" x="0px" y="0px"
	 width="100%" viewBox="0 0 1276 392" enable-background="new 0 0 1276 392" xml:space="preserve">
<path fill="#FFFEFE" opacity="1.000000" stroke="none" 
	d="
M176.000000,1.000001 
	C542.953796,1.000000 909.907532,1.000000 1276.930664,1.000000 
	C1276.930664,131.603958 1276.930664,262.207947 1276.930664,392.905975 
	C851.782959,392.905975 426.565826,392.905975 1.174371,392.905975 
	C1.174371,262.333496 1.174371,131.666779 1.174371,1.000000 
	C57.428082,1.000000 113.754341,1.000000 170.470306,1.342561 
	C116.694275,32.993565 62.545971,64.332344 8.316075,95.529297 
	C5.306638,97.260544 4.221461,99.034508 4.227536,102.490768 
	C4.336481,164.476395 4.330375,226.462280 4.239069,288.447968 
	C4.234353,291.649445 5.077199,293.429260 7.995903,295.105286 
	C61.816307,326.011078 115.571152,357.031372 169.261917,388.161865 
	C172.266068,389.903687 174.302460,389.966919 177.331406,388.211334 
	C230.877380,357.175842 284.485229,326.246826 338.160431,295.435425 
	C341.394135,293.579193 342.303528,291.532410 342.296570,287.963928 
	C342.183929,229.977417 341.794891,171.985077 342.557678,114.008392 
	C342.718201,101.807274 339.261139,95.524742 328.469177,89.542480 
	C283.937408,64.857361 240.067535,38.976791 196.001389,13.454472 
	C189.208481,9.520137 182.660995,5.162091 176.000000,1.000001 
M968.586731,212.921967 
	C968.738586,211.601044 968.959473,210.283905 969.031738,208.958633 
	C969.864136,193.684006 965.331604,180.634079 951.388123,173.033829 
	C937.753845,165.602051 923.978333,165.968918 911.251526,175.963516 
	C911.114380,176.071213 910.675476,175.794739 910.373108,175.696198 
	C910.211365,173.612640 910.050781,171.543640 909.885742,169.417709 
	C903.122864,169.417709 896.868713,169.417709 890.363037,169.417709 
	C890.363037,202.373917 890.363037,235.056641 890.363037,267.754272 
	C897.433899,267.754272 904.163269,267.754272 911.408691,267.754272 
	C911.408691,256.871857 911.408691,246.328873 911.408691,235.416687 
	C933.670654,252.076019 964.317200,239.395142 968.586731,212.921967 
M631.420349,169.144699 
	C627.470764,169.144699 623.521179,169.144699 619.367432,169.144699 
	C619.367432,202.393341 619.367432,235.070847 619.367432,267.751404 
	C626.441772,267.751404 633.170715,267.751404 640.200867,267.751404 
	C640.200867,262.095428 640.200867,256.788605 640.200867,251.481781 
	C640.200867,246.249817 640.200867,241.017868 640.200867,235.364578 
	C658.742310,246.617920 677.289062,244.826569 689.208618,231.146622 
	C700.809509,217.832397 701.268066,194.636093 690.195618,181.216537 
	C677.903381,166.318420 659.522827,164.378220 639.442444,176.070618 
	C639.266418,173.871521 639.100525,171.799805 638.888000,169.144714 
	C636.624023,169.144714 634.504272,169.144714 631.420349,169.144699 
M1193.380005,233.972107 
	C1193.834595,232.501907 1195.141724,230.348495 1194.602051,229.675034 
	C1191.631470,225.968430 1188.209473,222.623581 1184.969482,219.183426 
	C1169.432251,232.669235 1146.793701,224.204910 1146.820679,211.685059 
	C1148.604614,211.685059 1150.393555,211.685059 1152.182495,211.685043 
	C1166.996460,211.685028 1181.811523,211.583923 1196.623413,211.759338 
	C1200.123901,211.800797 1201.294922,210.647873 1201.265747,207.235046 
	C1201.199219,199.449295 1200.219849,191.870972 1195.857544,185.255630 
	C1186.048706,170.380447 1171.670654,166.171478 1154.961548,169.090729 
	C1140.940063,171.540436 1130.841797,179.719864 1126.524414,193.395004 
	C1122.183960,207.143433 1124.310547,220.204132 1134.633667,230.939163 
	C1148.916870,245.792252 1175.858398,247.257950 1193.380005,233.972107 
M539.283386,238.270248 
	C559.813721,248.433121 585.266907,241.995789 594.945618,223.668579 
	C606.716064,201.380600 595.727051,170.234161 561.720032,168.192673 
	C543.290466,167.086319 526.456604,177.689392 521.256897,193.751648 
	C515.740112,210.793457 522.488708,227.958466 539.283386,238.270248 
M446.523926,147.381241 
	C442.421143,147.381241 438.318359,147.381241 434.050598,147.381241 
	C434.050598,153.616135 434.050598,159.194595 434.050598,165.451447 
	C444.101410,165.451447 453.924133,165.451447 464.261902,165.451447 
	C464.261902,191.329376 464.261902,216.531845 464.261902,241.678726 
	C471.730530,241.678726 478.655975,241.678726 486.037689,241.678726 
	C486.037689,239.624741 486.037689,237.831116 486.037689,236.037476 
	C486.037689,214.561035 486.036896,193.084579 486.038208,171.608139 
	C486.038605,165.272827 486.041351,165.278381 492.607300,165.283615 
	C500.355286,165.289780 508.103302,165.285080 515.818848,165.285080 
	C515.818848,158.974594 515.818848,153.277802 515.818848,147.381348 
	C492.785461,147.381348 470.151215,147.381348 446.523926,147.381241 
M1025.730347,168.806885 
	C1015.290466,167.405182 1005.112061,168.185715 995.571533,172.978699 
	C987.169922,177.199524 983.080017,184.876907 983.860901,194.281830 
	C984.616699,203.383820 990.510925,208.042007 998.428528,210.698471 
	C1001.714172,211.800812 1005.203552,212.317276 1008.619690,213.003891 
	C1013.495361,213.983887 1018.491089,214.539856 1023.220642,215.981842 
	C1024.938354,216.505524 1027.169067,219.090073 1027.118774,220.669052 
	C1027.062988,222.417282 1024.989380,224.770996 1023.203186,225.626389 
	C1020.917664,226.720901 1018.050537,226.832642 1015.417969,226.929108 
	C1006.093018,227.270767 997.434814,224.610138 988.878540,220.162766 
	C986.486816,225.360886 984.254272,230.213165 981.930237,235.264328 
	C995.028198,242.214447 1008.377747,244.534195 1022.123840,242.171692 
	C1028.447510,241.084854 1035.158325,238.645340 1040.279907,234.890625 
	C1052.340210,226.048920 1049.638184,207.502625 1035.702515,202.307724 
	C1028.622803,199.668549 1020.878540,198.833740 1013.462952,197.064697 
	C1009.590698,196.140915 1004.119202,196.402847 1004.257507,190.750458 
	C1004.398499,184.989349 1009.897766,184.320587 1013.993225,184.550446 
	C1022.119080,185.006561 1030.186035,186.512634 1039.129150,187.697617 
	C1040.734741,184.308914 1042.985107,179.559525 1045.806274,173.605423 
	C1039.004517,171.933426 1032.807861,170.410233 1025.730347,168.806885 
M801.846558,195.551331 
	C801.846558,192.806015 801.846558,190.060699 801.846558,186.877365 
	C808.248657,186.877365 813.831055,186.877365 819.527039,186.877365 
	C819.527039,181.355957 819.527039,176.301270 819.527039,170.676880 
	C813.494385,170.676880 807.769409,170.676880 801.572632,170.676880 
	C801.572632,164.520065 801.572632,158.933823 801.572632,153.465515 
	C794.348633,153.465515 787.640198,153.465515 780.414429,153.465515 
	C780.414429,159.437012 780.414429,165.003906 780.414429,170.978622 
	C776.468811,170.978622 773.048035,170.978622 769.468872,170.978622 
	C769.468872,176.475159 769.468872,181.536682 769.468872,187.059784 
	C773.152649,187.059784 776.567932,187.059784 780.548035,187.059784 
	C780.548035,189.124527 780.547852,190.742340 780.548035,192.360153 
	C780.549133,200.680038 780.452148,209.001404 780.579102,217.319366 
	C780.705566,225.604141 782.499634,233.469193 790.024231,238.191910 
	C800.214050,244.587448 811.120605,244.473923 822.024231,239.970474 
	C823.034058,239.553360 824.219116,237.361954 823.938232,236.397827 
	C822.706970,232.171555 820.965881,228.093811 819.337097,223.769318 
	C818.049194,224.361374 817.338135,224.735641 816.593567,225.023224 
	C807.520935,228.527725 801.883667,224.703110 801.851135,215.010590 
	C801.830444,208.853958 801.846802,202.697174 801.846558,195.551331 
M1069.547974,205.492249 
	C1069.550415,209.658844 1069.417603,213.830887 1069.584839,217.990860 
	C1069.887817,225.530334 1071.401245,232.856705 1078.002563,237.436890 
	C1088.473145,244.701691 1099.834473,244.572784 1111.280640,239.861664 
	C1112.214478,239.477295 1113.179443,237.164139 1112.870605,236.119522 
	C1111.659668,232.022873 1109.943726,228.075516 1108.428833,224.107895 
	C1106.000122,224.810059 1103.999878,225.639175 1101.922729,225.941193 
	C1096.034546,226.797379 1091.528809,224.565933 1091.290527,219.631256 
	C1090.772827,208.909241 1091.130859,198.144928 1091.130859,186.937012 
	C1097.181274,186.937012 1102.773926,186.937012 1108.541992,186.937012 
	C1108.541992,181.405197 1108.541992,176.344971 1108.541992,170.703156 
	C1102.516968,170.703156 1096.783936,170.703156 1090.571655,170.703156 
	C1090.571655,164.529526 1090.571655,158.935226 1090.571655,153.274963 
	C1083.437744,153.274963 1076.818604,153.274963 1069.512573,153.274963 
	C1069.512573,159.191986 1069.512573,164.901459 1069.512573,171.030075 
	C1065.410645,171.030075 1061.984741,171.030075 1058.504150,171.030075 
	C1058.504150,176.551727 1058.504150,181.618576 1058.504150,187.140167 
	C1062.236816,187.140167 1065.661865,187.140167 1069.548218,187.140167 
	C1069.548218,193.225906 1069.548218,198.860596 1069.547974,205.492249 
M1230.528076,241.955078 
	C1234.305664,241.955078 1238.083374,241.955078 1242.202515,241.955078 
	C1242.202515,230.076996 1242.137085,218.781281 1242.219360,207.486633 
	C1242.317871,193.965988 1249.236450,187.233109 1262.696655,187.379074 
	C1263.660645,187.389526 1264.624878,187.380447 1265.870117,187.380447 
	C1265.870117,181.022446 1265.870117,174.822937 1265.870117,168.394028 
	C1256.489990,168.240479 1248.481812,170.920563 1241.034668,178.177032 
	C1241.034668,174.384399 1241.034668,171.995987 1241.034668,169.526321 
	C1234.132690,169.526321 1227.751221,169.526321 1221.339844,169.526321 
	C1221.339844,193.799637 1221.339844,217.688751 1221.339844,241.955078 
	C1224.282959,241.955078 1226.916504,241.955078 1230.528076,241.955078 
M843.026978,192.500031 
	C843.026978,208.908081 843.026978,225.316116 843.026978,241.582626 
	C850.540894,241.582626 857.279297,241.582626 863.792847,241.582626 
	C863.792847,217.316177 863.792847,193.423401 863.792847,169.413849 
	C856.795410,169.413849 850.208740,169.413849 843.026978,169.413849 
	C843.026978,176.947571 843.026978,184.223816 843.026978,192.500031 
M716.176819,199.775299 
	C716.176819,203.859818 716.176819,207.944321 716.176819,212.104965 
	C729.242798,212.104965 741.635803,212.104965 754.208191,212.104965 
	C754.208191,206.443497 754.208191,201.077255 754.208191,195.366165 
	C742.199036,195.366165 730.576172,195.285004 718.959595,195.517227 
	C718.010254,195.536209 717.103577,197.692352 716.176819,199.775299 
M845.527832,137.870071 
	C840.568665,142.190994 839.126648,146.968750 841.271729,151.971390 
	C843.515564,157.204056 849.618103,160.020035 856.428284,158.965271 
	C861.917969,158.114990 865.743164,154.249313 866.542175,148.744202 
	C867.422852,142.675735 863.956604,137.105881 857.785034,136.297516 
	C854.030945,135.805817 850.050964,137.039230 845.527832,137.870071 
z"/>
<path fill="#371919" opacity="1.000000" stroke="none" 
	d="
M175.583344,1.000001 
	C182.660995,5.162091 189.208481,9.520137 196.001389,13.454472 
	C240.067535,38.976791 283.937408,64.857361 328.469177,89.542480 
	C339.261139,95.524742 342.718201,101.807274 342.557678,114.008392 
	C341.794891,171.985077 342.183929,229.977417 342.296570,287.963928 
	C342.303528,291.532410 341.394135,293.579193 338.160431,295.435425 
	C284.485229,326.246826 230.877380,357.175842 177.331406,388.211334 
	C174.302460,389.966919 172.266068,389.903687 169.261917,388.161865 
	C115.571152,357.031372 61.816307,326.011078 7.995903,295.105286 
	C5.077199,293.429260 4.234353,291.649445 4.239069,288.447968 
	C4.330375,226.462280 4.336481,164.476395 4.227536,102.490768 
	C4.221461,99.034508 5.306638,97.260544 8.316075,95.529297 
	C62.545971,64.332344 116.694275,32.993565 170.930023,1.342561 
	C172.388885,1.000000 173.777786,1.000000 175.583344,1.000001 
M40.240299,94.698235 
	C34.340260,98.121109 28.317625,101.356834 22.620209,105.089012 
	C21.055805,106.113808 19.562632,108.621414 19.557459,110.452888 
	C19.397438,167.105270 19.397081,223.758255 19.559805,280.410583 
	C19.565048,282.236298 21.078903,284.844757 22.659740,285.764618 
	C71.707932,314.305298 120.863152,342.661987 169.949875,371.136658 
	C172.407349,372.562195 174.165039,372.651398 176.682129,371.189514 
	C225.605179,342.776154 274.574707,314.442535 323.602844,286.210907 
	C326.311646,284.651123 327.191772,282.959534 327.187408,279.939270 
	C327.105927,223.619827 327.095184,167.300156 327.209564,110.980812 
	C327.216309,107.659042 326.095917,106.018730 323.288849,104.402481 
	C274.548889,76.338806 225.865524,48.176666 177.229706,19.932877 
	C174.466125,18.328012 172.516678,18.136786 169.611481,19.826216 
	C126.751106,44.750404 83.799583,69.517845 40.240299,94.698235 
z"/>
<path fill="#361818" opacity="1.000000" stroke="none" 
	d="
M968.524536,213.358170 
	C964.317200,239.395142 933.670654,252.076019 911.408691,235.416687 
	C911.408691,246.328873 911.408691,256.871857 911.408691,267.754272 
	C904.163269,267.754272 897.433899,267.754272 890.363037,267.754272 
	C890.363037,235.056641 890.363037,202.373917 890.363037,169.417709 
	C896.868713,169.417709 903.122864,169.417709 909.885742,169.417709 
	C910.050781,171.543640 910.211365,173.612640 910.373108,175.696198 
	C910.675476,175.794739 911.114380,176.071213 911.251526,175.963516 
	C923.978333,165.968918 937.753845,165.602051 951.388123,173.033829 
	C965.331604,180.634079 969.864136,193.684006 969.031738,208.958633 
	C968.959473,210.283905 968.738586,211.601044 968.524536,213.358170 
M913.213257,194.921906 
	C912.718384,196.155914 912.040894,197.349625 911.758118,198.630447 
	C909.908203,207.010239 910.401001,214.969406 917.186584,221.168961 
	C922.756531,226.257812 929.509216,226.933243 936.287476,224.320023 
	C943.959595,221.362213 947.074951,214.941071 947.706726,207.065964 
	C948.460022,197.676331 943.749634,189.572495 935.792603,186.679169 
	C927.425232,183.636627 918.980896,186.517700 913.213257,194.921906 
z"/>
<path fill="#361818" opacity="1.000000" stroke="none" 
	d="
M631.902466,169.144714 
	C634.504272,169.144714 636.624023,169.144714 638.888000,169.144714 
	C639.100525,171.799805 639.266418,173.871521 639.442444,176.070618 
	C659.522827,164.378220 677.903381,166.318420 690.195618,181.216537 
	C701.268066,194.636093 700.809509,217.832397 689.208618,231.146622 
	C677.289062,244.826569 658.742310,246.617920 640.200867,235.364578 
	C640.200867,241.017868 640.200867,246.249817 640.200867,251.481781 
	C640.200867,256.788605 640.200867,262.095428 640.200867,267.751404 
	C633.170715,267.751404 626.441772,267.751404 619.367432,267.751404 
	C619.367432,235.070847 619.367432,202.393341 619.367432,169.144699 
	C623.521179,169.144699 627.470764,169.144699 631.902466,169.144714 
M674.141541,194.617294 
	C671.947998,192.402084 670.062927,189.702972 667.499146,188.068481 
	C661.438049,184.204407 652.421631,184.870163 646.883606,189.384247 
	C639.678528,195.257141 638.740784,203.239563 640.586060,211.601562 
	C642.587524,220.671295 650.380432,226.284927 659.170105,225.702423 
	C668.388977,225.091461 675.247498,219.177078 676.098145,209.840820 
	C676.532410,205.075256 675.099854,200.139572 674.141541,194.617294 
z"/>
<path fill="#371919" opacity="1.000000" stroke="none" 
	d="
M1193.103516,234.190033 
	C1175.858398,247.257950 1148.916870,245.792252 1134.633667,230.939163 
	C1124.310547,220.204132 1122.183960,207.143433 1126.524414,193.395004 
	C1130.841797,179.719864 1140.940063,171.540436 1154.961548,169.090729 
	C1171.670654,166.171478 1186.048706,170.380447 1195.857544,185.255630 
	C1200.219849,191.870972 1201.199219,199.449295 1201.265747,207.235046 
	C1201.294922,210.647873 1200.123901,211.800797 1196.623413,211.759338 
	C1181.811523,211.583923 1166.996460,211.685028 1152.182495,211.685043 
	C1150.393555,211.685059 1148.604614,211.685059 1146.820679,211.685059 
	C1146.793701,224.204910 1169.432251,232.669235 1184.969482,219.183426 
	C1188.209473,222.623581 1191.631470,225.968430 1194.602051,229.675034 
	C1195.141724,230.348495 1193.834595,232.501907 1193.103516,234.190033 
M1168.399292,184.769119 
	C1156.703003,182.330017 1147.340820,188.170746 1146.231323,198.813660 
	C1157.767456,198.813660 1169.277832,198.813660 1181.080688,198.813660 
	C1179.638672,191.624283 1175.767456,187.115784 1168.399292,184.769119 
z"/>
<path fill="#361818" opacity="1.000000" stroke="none" 
	d="
M538.954041,238.098480 
	C522.488708,227.958466 515.740112,210.793457 521.256897,193.751648 
	C526.456604,177.689392 543.290466,167.086319 561.720032,168.192673 
	C595.727051,170.234161 606.716064,201.380600 594.945618,223.668579 
	C585.266907,241.995789 559.813721,248.433121 538.954041,238.098480 
M546.346985,220.138809 
	C550.430664,224.405075 555.545410,226.094620 561.275330,225.540680 
	C573.166687,224.391068 580.099426,213.614838 577.528870,200.582108 
	C575.671936,191.167328 568.633301,185.452347 559.163086,185.670059 
	C549.550293,185.891068 542.428894,192.223206 541.289307,201.791061 
	C540.517822,208.268738 541.413879,214.415878 546.346985,220.138809 
z"/>
<path fill="#371919" opacity="1.000000" stroke="none" 
	d="
M447.020447,147.381287 
	C470.151215,147.381348 492.785461,147.381348 515.818848,147.381348 
	C515.818848,153.277802 515.818848,158.974594 515.818848,165.285080 
	C508.103302,165.285080 500.355286,165.289780 492.607300,165.283615 
	C486.041351,165.278381 486.038605,165.272827 486.038208,171.608139 
	C486.036896,193.084579 486.037689,214.561035 486.037689,236.037476 
	C486.037689,237.831116 486.037689,239.624741 486.037689,241.678726 
	C478.655975,241.678726 471.730530,241.678726 464.261902,241.678726 
	C464.261902,216.531845 464.261902,191.329376 464.261902,165.451447 
	C453.924133,165.451447 444.101410,165.451447 434.050598,165.451447 
	C434.050598,159.194595 434.050598,153.616135 434.050598,147.381241 
	C438.318359,147.381241 442.421143,147.381241 447.020447,147.381287 
z"/>
<path fill="#361919" opacity="1.000000" stroke="none" 
	d="
M1026.170898,168.846954 
	C1032.807861,170.410233 1039.004517,171.933426 1045.806274,173.605423 
	C1042.985107,179.559525 1040.734741,184.308914 1039.129150,187.697617 
	C1030.186035,186.512634 1022.119080,185.006561 1013.993225,184.550446 
	C1009.897766,184.320587 1004.398499,184.989349 1004.257507,190.750458 
	C1004.119202,196.402847 1009.590698,196.140915 1013.462952,197.064697 
	C1020.878540,198.833740 1028.622803,199.668549 1035.702515,202.307724 
	C1049.638184,207.502625 1052.340210,226.048920 1040.279907,234.890625 
	C1035.158325,238.645340 1028.447510,241.084854 1022.123840,242.171692 
	C1008.377747,244.534195 995.028198,242.214447 981.930237,235.264328 
	C984.254272,230.213165 986.486816,225.360886 988.878540,220.162766 
	C997.434814,224.610138 1006.093018,227.270767 1015.417969,226.929108 
	C1018.050537,226.832642 1020.917664,226.720901 1023.203186,225.626389 
	C1024.989380,224.770996 1027.062988,222.417282 1027.118774,220.669052 
	C1027.169067,219.090073 1024.938354,216.505524 1023.220642,215.981842 
	C1018.491089,214.539856 1013.495361,213.983887 1008.619690,213.003891 
	C1005.203552,212.317276 1001.714172,211.800812 998.428528,210.698471 
	C990.510925,208.042007 984.616699,203.383820 983.860901,194.281830 
	C983.080017,184.876907 987.169922,177.199524 995.571533,172.978699 
	C1005.112061,168.185715 1015.290466,167.405182 1026.170898,168.846954 
z"/>
<path fill="#361818" opacity="1.000000" stroke="none" 
	d="
M801.846558,196.045898 
	C801.846802,202.697174 801.830444,208.853958 801.851135,215.010590 
	C801.883667,224.703110 807.520935,228.527725 816.593567,225.023224 
	C817.338135,224.735641 818.049194,224.361374 819.337097,223.769318 
	C820.965881,228.093811 822.706970,232.171555 823.938232,236.397827 
	C824.219116,237.361954 823.034058,239.553360 822.024231,239.970474 
	C811.120605,244.473923 800.214050,244.587448 790.024231,238.191910 
	C782.499634,233.469193 780.705566,225.604141 780.579102,217.319366 
	C780.452148,209.001404 780.549133,200.680038 780.548035,192.360153 
	C780.547852,190.742340 780.548035,189.124527 780.548035,187.059784 
	C776.567932,187.059784 773.152649,187.059784 769.468872,187.059784 
	C769.468872,181.536682 769.468872,176.475159 769.468872,170.978622 
	C773.048035,170.978622 776.468811,170.978622 780.414429,170.978622 
	C780.414429,165.003906 780.414429,159.437012 780.414429,153.465515 
	C787.640198,153.465515 794.348633,153.465515 801.572632,153.465515 
	C801.572632,158.933823 801.572632,164.520065 801.572632,170.676880 
	C807.769409,170.676880 813.494385,170.676880 819.527039,170.676880 
	C819.527039,176.301270 819.527039,181.355957 819.527039,186.877365 
	C813.831055,186.877365 808.248657,186.877365 801.846558,186.877365 
	C801.846558,190.060699 801.846558,192.806015 801.846558,196.045898 
z"/>
<path fill="#361818" opacity="1.000000" stroke="none" 
	d="
M1069.548096,204.993774 
	C1069.548218,198.860596 1069.548218,193.225906 1069.548218,187.140167 
	C1065.661865,187.140167 1062.236816,187.140167 1058.504150,187.140167 
	C1058.504150,181.618576 1058.504150,176.551727 1058.504150,171.030075 
	C1061.984741,171.030075 1065.410645,171.030075 1069.512573,171.030075 
	C1069.512573,164.901459 1069.512573,159.191986 1069.512573,153.274963 
	C1076.818604,153.274963 1083.437744,153.274963 1090.571655,153.274963 
	C1090.571655,158.935226 1090.571655,164.529526 1090.571655,170.703156 
	C1096.783936,170.703156 1102.516968,170.703156 1108.541992,170.703156 
	C1108.541992,176.344971 1108.541992,181.405197 1108.541992,186.937012 
	C1102.773926,186.937012 1097.181274,186.937012 1091.130859,186.937012 
	C1091.130859,198.144928 1090.772827,208.909241 1091.290527,219.631256 
	C1091.528809,224.565933 1096.034546,226.797379 1101.922729,225.941193 
	C1103.999878,225.639175 1106.000122,224.810059 1108.428833,224.107895 
	C1109.943726,228.075516 1111.659668,232.022873 1112.870605,236.119522 
	C1113.179443,237.164139 1112.214478,239.477295 1111.280640,239.861664 
	C1099.834473,244.572784 1088.473145,244.701691 1078.002563,237.436890 
	C1071.401245,232.856705 1069.887817,225.530334 1069.584839,217.990860 
	C1069.417603,213.830887 1069.550415,209.658844 1069.548096,204.993774 
z"/>
<path fill="#361818" opacity="1.000000" stroke="none" 
	d="
M1230.039062,241.955078 
	C1226.916504,241.955078 1224.282959,241.955078 1221.339844,241.955078 
	C1221.339844,217.688751 1221.339844,193.799637 1221.339844,169.526321 
	C1227.751221,169.526321 1234.132690,169.526321 1241.034668,169.526321 
	C1241.034668,171.995987 1241.034668,174.384399 1241.034668,178.177032 
	C1248.481812,170.920563 1256.489990,168.240479 1265.870117,168.394028 
	C1265.870117,174.822937 1265.870117,181.022446 1265.870117,187.380447 
	C1264.624878,187.380447 1263.660645,187.389526 1262.696655,187.379074 
	C1249.236450,187.233109 1242.317871,193.965988 1242.219360,207.486633 
	C1242.137085,218.781281 1242.202515,230.076996 1242.202515,241.955078 
	C1238.083374,241.955078 1234.305664,241.955078 1230.039062,241.955078 
z"/>
<path fill="#361818" opacity="1.000000" stroke="none" 
	d="
M843.026978,192.000046 
	C843.026978,184.223816 843.026978,176.947571 843.026978,169.413849 
	C850.208740,169.413849 856.795410,169.413849 863.792847,169.413849 
	C863.792847,193.423401 863.792847,217.316177 863.792847,241.582626 
	C857.279297,241.582626 850.540894,241.582626 843.026978,241.582626 
	C843.026978,225.316116 843.026978,208.908081 843.026978,192.000046 
z"/>
<path fill="#3A1E1E" opacity="1.000000" stroke="none" 
	d="
M716.176941,199.315369 
	C717.103577,197.692352 718.010254,195.536209 718.959595,195.517227 
	C730.576172,195.285004 742.199036,195.366165 754.208191,195.366165 
	C754.208191,201.077255 754.208191,206.443497 754.208191,212.104965 
	C741.635803,212.104965 729.242798,212.104965 716.176819,212.104965 
	C716.176819,207.944321 716.176819,203.859818 716.176941,199.315369 
z"/>
<path fill="#371A1A" opacity="1.000000" stroke="none" 
	d="
M845.850098,137.683899 
	C850.050964,137.039230 854.030945,135.805817 857.785034,136.297516 
	C863.956604,137.105881 867.422852,142.675735 866.542175,148.744202 
	C865.743164,154.249313 861.917969,158.114990 856.428284,158.965271 
	C849.618103,160.020035 843.515564,157.204056 841.271729,151.971390 
	C839.126648,146.968750 840.568665,142.190994 845.850098,137.683899 
z"/>
<path fill="#FEFEFE" opacity="1.000000" stroke="none" 
	d="
M40.554985,94.510345 
	C83.799583,69.517845 126.751106,44.750404 169.611481,19.826216 
	C172.516678,18.136786 174.466125,18.328012 177.229706,19.932877 
	C225.865524,48.176666 274.548889,76.338806 323.288849,104.402481 
	C326.095917,106.018730 327.216309,107.659042 327.209564,110.980812 
	C327.095184,167.300156 327.105927,223.619827 327.187408,279.939270 
	C327.191772,282.959534 326.311646,284.651123 323.602844,286.210907 
	C274.574707,314.442535 225.605179,342.776154 176.682129,371.189514 
	C174.165039,372.651398 172.407349,372.562195 169.949875,371.136658 
	C120.863152,342.661987 71.707932,314.305298 22.659740,285.764618 
	C21.078903,284.844757 19.565048,282.236298 19.559805,280.410583 
	C19.397081,223.758255 19.397438,167.105270 19.557459,110.452888 
	C19.562632,108.621414 21.055805,106.113808 22.620209,105.089012 
	C28.317625,101.356834 34.340260,98.121109 40.554985,94.510345 
M179.500000,262.956696 
	C188.613724,262.956696 197.727463,262.956696 206.889557,262.956696 
	C207.678467,255.933456 206.800522,249.837662 203.010864,244.356796 
	C199.152390,238.776398 193.390182,236.182327 188.261978,234.975784 
	C194.694550,223.228561 201.071609,211.582718 207.281357,200.242432 
	C209.169662,203.241089 211.411209,206.800751 213.900986,210.754562 
	C217.006836,207.630997 219.539139,205.084244 222.045578,202.563538 
	C217.285187,195.165512 217.310928,190.802689 222.750961,183.948959 
	C225.317993,180.714844 228.654724,178.104050 231.471329,175.052628 
	C235.511536,170.675583 240.056961,166.572601 243.201004,161.602554 
	C248.898346,152.596298 247.018158,141.153183 239.628326,134.183075 
	C231.881104,126.875877 220.678940,125.941292 211.498383,131.537170 
	C209.511826,132.748047 206.943024,133.579849 204.635010,133.597107 
	C183.812195,133.752899 162.987061,133.763550 142.164566,133.587723 
	C139.710861,133.567032 136.989731,132.625397 134.867065,131.331955 
	C121.940834,123.455353 105.317307,129.624695 101.032104,144.185333 
	C98.175545,153.891602 101.931442,161.828857 108.457535,168.681717 
	C112.813217,173.255493 117.776772,177.253922 122.089890,181.863876 
	C129.095383,189.351486 129.520782,193.828644 125.251335,201.863358 
	C127.681953,204.854538 129.931335,207.622696 132.661896,210.982986 
	C135.301758,206.745651 137.442963,203.308716 139.225906,200.446869 
	C145.444290,211.786926 151.790268,223.359650 158.077789,234.825775 
	C143.229828,240.861191 137.104721,249.963562 140.101532,262.956696 
	C152.863297,262.956696 165.681641,262.956696 179.500000,262.956696 
z"/>
<path fill="#FAFAFA" opacity="1.000000" stroke="none" 
	d="
M913.396729,194.589752 
	C918.980896,186.517700 927.425232,183.636627 935.792603,186.679169 
	C943.749634,189.572495 948.460022,197.676331 947.706726,207.065964 
	C947.074951,214.941071 943.959595,221.362213 936.287476,224.320023 
	C929.509216,226.933243 922.756531,226.257812 917.186584,221.168961 
	C910.401001,214.969406 909.908203,207.010239 911.758118,198.630447 
	C912.040894,197.349625 912.718384,196.155914 913.396729,194.589752 
z"/>
<path fill="#FAFAFA" opacity="1.000000" stroke="none" 
	d="
M674.326294,194.949036 
	C675.099854,200.139572 676.532410,205.075256 676.098145,209.840820 
	C675.247498,219.177078 668.388977,225.091461 659.170105,225.702423 
	C650.380432,226.284927 642.587524,220.671295 640.586060,211.601562 
	C638.740784,203.239563 639.678528,195.257141 646.883606,189.384247 
	C652.421631,184.870163 661.438049,184.204407 667.499146,188.068481 
	C670.062927,189.702972 671.947998,192.402084 674.326294,194.949036 
z"/>
<path fill="#F8F7F7" opacity="1.000000" stroke="none" 
	d="
M1168.798096,184.842896 
	C1175.767456,187.115784 1179.638672,191.624283 1181.080688,198.813660 
	C1169.277832,198.813660 1157.767456,198.813660 1146.231323,198.813660 
	C1147.340820,188.170746 1156.703003,182.330017 1168.798096,184.842896 
z"/>
<path fill="#FBFBFB" opacity="1.000000" stroke="none" 
	d="
M546.090576,219.877289 
	C541.413879,214.415878 540.517822,208.268738 541.289307,201.791061 
	C542.428894,192.223206 549.550293,185.891068 559.163086,185.670059 
	C568.633301,185.452347 575.671936,191.167328 577.528870,200.582108 
	C580.099426,213.614838 573.166687,224.391068 561.275330,225.540680 
	C555.545410,226.094620 550.430664,224.405075 546.090576,219.877289 
z"/>
<path fill="#371A1A" opacity="1.000000" stroke="none" 
	d="
M179.000000,262.956696 
	C165.681641,262.956696 152.863297,262.956696 140.101532,262.956696 
	C137.104721,249.963562 143.229828,240.861191 158.077789,234.825775 
	C151.790268,223.359650 145.444290,211.786926 139.225906,200.446869 
	C137.442963,203.308716 135.301758,206.745651 132.661896,210.982986 
	C129.931335,207.622696 127.681953,204.854538 125.251335,201.863358 
	C129.520782,193.828644 129.095383,189.351486 122.089890,181.863876 
	C117.776772,177.253922 112.813217,173.255493 108.457535,168.681717 
	C101.931442,161.828857 98.175545,153.891602 101.032104,144.185333 
	C105.317307,129.624695 121.940834,123.455353 134.867065,131.331955 
	C136.989731,132.625397 139.710861,133.567032 142.164566,133.587723 
	C162.987061,133.763550 183.812195,133.752899 204.635010,133.597107 
	C206.943024,133.579849 209.511826,132.748047 211.498383,131.537170 
	C220.678940,125.941292 231.881104,126.875877 239.628326,134.183075 
	C247.018158,141.153183 248.898346,152.596298 243.201004,161.602554 
	C240.056961,166.572601 235.511536,170.675583 231.471329,175.052628 
	C228.654724,178.104050 225.317993,180.714844 222.750961,183.948959 
	C217.310928,190.802689 217.285187,195.165512 222.045578,202.563538 
	C219.539139,205.084244 217.006836,207.630997 213.900986,210.754562 
	C211.411209,206.800751 209.169662,203.241089 207.281357,200.242432 
	C201.071609,211.582718 194.694550,223.228561 188.261978,234.975784 
	C193.390182,236.182327 199.152390,238.776398 203.010864,244.356796 
	C206.800522,249.837662 207.678467,255.933456 206.889557,262.956696 
	C197.727463,262.956696 188.613724,262.956696 179.000000,262.956696 
M214.694031,175.779419 
	C218.629044,171.990921 222.631561,168.269241 226.473938,164.389023 
	C228.796646,162.043442 231.206757,159.670517 232.991898,156.928574 
	C237.767776,149.592865 234.067169,141.119873 225.540680,139.329315 
	C220.786118,138.330856 218.515228,140.211121 218.069916,144.959686 
	C217.452133,151.547256 216.528992,158.106354 215.726456,164.676392 
	C215.252625,168.555435 214.759247,172.432114 214.006027,176.129013 
	C213.911514,176.139145 213.817001,176.149277 213.722488,176.159409 
	C213.878677,176.178528 214.034882,176.197647 214.694031,175.779419 
M181.016235,223.495865 
	C197.774811,200.144730 203.403458,173.263870 206.458939,145.205200 
	C184.052505,145.205200 162.308609,145.205200 139.862259,145.205200 
	C141.296936,154.391815 142.318359,163.300369 144.163757,172.034836 
	C145.775940,179.665375 147.631744,187.384598 150.614670,194.550674 
	C154.554474,204.015533 159.021240,213.410324 164.513336,222.038391 
	C170.181290,230.942749 173.476868,230.825821 181.016235,223.495865 
M131.065018,166.465530 
	C130.161224,159.064392 128.929138,151.683273 128.475632,144.254654 
	C128.199371,139.729233 125.680763,139.000961 122.278496,139.173050 
	C114.075493,139.587936 109.009277,148.147369 112.787796,155.479797 
	C114.200943,158.222061 116.397903,160.656036 118.593338,162.879166 
	C122.843834,167.183304 127.346703,171.238190 132.428604,176.042679 
	C131.954865,172.687729 131.575714,170.002655 131.065018,166.465530 
M175.497681,251.786514 
	C181.072708,251.786514 186.647720,251.786514 192.222748,251.786514 
	C192.459152,251.211075 192.695557,250.635620 192.931961,250.060181 
	C190.243729,248.723251 187.622833,246.427856 184.854324,246.233322 
	C177.261246,245.699783 169.601624,245.894592 161.977646,246.118484 
	C158.510925,246.220291 155.368820,247.472778 154.182907,251.786484 
	C161.251343,251.786484 167.875168,251.786484 175.497681,251.786514 
z"/>
<path fill="#FBFBFB" opacity="1.000000" stroke="none" 
	d="
M180.763214,223.750229 
	C173.476868,230.825821 170.181290,230.942749 164.513336,222.038391 
	C159.021240,213.410324 154.554474,204.015533 150.614670,194.550674 
	C147.631744,187.384598 145.775940,179.665375 144.163757,172.034836 
	C142.318359,163.300369 141.296936,154.391815 139.862259,145.205200 
	C162.308609,145.205200 184.052505,145.205200 206.458939,145.205200 
	C203.403458,173.263870 197.774811,200.144730 180.763214,223.750229 
M167.843918,167.565598 
	C167.843918,174.842712 167.843918,182.119827 167.843918,189.599579 
	C171.834549,189.599579 175.364319,189.599579 178.879913,189.599579 
	C178.879913,180.188477 178.879913,171.130402 178.879913,161.976822 
	C175.176285,161.976822 171.766998,161.976822 167.843933,161.976822 
	C167.843933,163.672180 167.843933,165.125824 167.843918,167.565598 
z"/>
<path fill="#F6F5F5" opacity="1.000000" stroke="none" 
	d="
M214.274643,176.309845 
	C214.759247,172.432114 215.252625,168.555435 215.726456,164.676392 
	C216.528992,158.106354 217.452133,151.547256 218.069916,144.959686 
	C218.515228,140.211121 220.786118,138.330856 225.540680,139.329315 
	C234.067169,141.119873 237.767776,149.592865 232.991898,156.928574 
	C231.206757,159.670517 228.796646,162.043442 226.473938,164.389023 
	C222.631561,168.269241 218.629044,171.990921 214.465302,176.019699 
	C214.236557,176.259979 214.274643,176.309845 214.274643,176.309845 
z"/>
<path fill="#F7F7F7" opacity="1.000000" stroke="none" 
	d="
M131.130798,166.891541 
	C131.575714,170.002655 131.954865,172.687729 132.428604,176.042679 
	C127.346703,171.238190 122.843834,167.183304 118.593338,162.879166 
	C116.397903,160.656036 114.200943,158.222061 112.787796,155.479797 
	C109.009277,148.147369 114.075493,139.587936 122.278496,139.173050 
	C125.680763,139.000961 128.199371,139.729233 128.475632,144.254654 
	C128.929138,151.683273 130.161224,159.064392 131.130798,166.891541 
z"/>
<path fill="#E5E4E4" opacity="1.000000" stroke="none" 
	d="
M174.998322,251.786499 
	C167.875168,251.786484 161.251343,251.786484 154.182907,251.786484 
	C155.368820,247.472778 158.510925,246.220291 161.977646,246.118484 
	C169.601624,245.894592 177.261246,245.699783 184.854324,246.233322 
	C187.622833,246.427856 190.243729,248.723251 192.931961,250.060181 
	C192.695557,250.635620 192.459152,251.211075 192.222748,251.786514 
	C186.647720,251.786514 181.072708,251.786514 174.998322,251.786499 
z"/>
<path fill="#F6F5F5" opacity="1.000000" stroke="none" 
	d="
M214.213806,176.238373 
	C214.034882,176.197647 213.878677,176.178528 213.722488,176.159409 
	C213.817001,176.149277 213.911514,176.139145 214.140335,176.219421 
	C214.274643,176.309845 214.236557,176.259979 214.213806,176.238373 
z"/>
<path fill="#371A1A" opacity="1.000000" stroke="none" 
	d="
M167.843933,167.072525 
	C167.843933,165.125824 167.843933,163.672180 167.843933,161.976822 
	C171.766998,161.976822 175.176285,161.976822 178.879913,161.976822 
	C178.879913,171.130402 178.879913,180.188477 178.879913,189.599579 
	C175.364319,189.599579 171.834549,189.599579 167.843918,189.599579 
	C167.843918,182.119827 167.843918,174.842712 167.843933,167.072525 
z"/>
</svg>