<svg  width="348.0100158691406" height="85.58586022427777" viewBox="0 0 369.6666666666667 90.911865234375"
     class="css-1j8o68f">
    <defs id="SvgjsDefs4473"></defs>
    <g id="SvgjsG4474" featurekey="QMusi1-0"
       transform="matrix(1.2626262626262625,0,0,1.2626262626262625,-21.464646464646464,-17.673992147349345)"
       fill="#000000">
        <path xmlns="http://www.w3.org/2000/svg"
              style="font-size:medium;font-style:normal;font-variant:normal;font-weight:normal;font-stretch:normal;text-indent:0;text-align:start;text-decoration:none;line-height:normal;letter-spacing:normal;word-spacing:normal;text-transform:none;direction:ltr;block-progression:tb;writing-mode:lr-tb;text-anchor:start;baseline-shift:baseline;opacity:1;color:;fill:#000000;fill-opacity:1;stroke:none;stroke-width:4;marker:none;visibility:visible;display:inline;overflow:visible;enable-background:accumulate;font-family:Sans;-inkscape-font-specification:Sans"
              d="M 32.8125 14 A 2.0002 2.0002 0 0 0 31.59375 14.59375 L 17.59375 28.59375 A 2.0002 2.0002 0 0 0 17 30 L 17 80 C 17 83.289406 19.710594 86 23 86 L 67 86 C 70.289406 86 73 83.289406 73 80 L 73 67.78125 C 78.764763 66.673973 83 61.046662 83 54.53125 C 83 48.015836 78.764763 42.414548 73 41.3125 L 73 39.5 C 73.916664 39.256106 74.815305 38.941011 75.6875 38.5 C 78.942357 36.854225 81.155016 34.063552 81.9375 30.9375 A 2.0002 2.0002 0 0 0 80.53125 28.53125 C 78.886717 28.071953 77.147981 27.91775 75.40625 28.0625 C 74.598401 28.129638 73.799032 28.266491 73 28.46875 L 73 20 C 73 16.710594 70.289406 14 67 14 L 33 14 A 2.0002 2.0002 0 0 0 32.8125 14 z M 36 18 L 67 18 C 68.142594 18 69 18.857406 69 20 L 69 30.21875 C 67.26955 31.359045 65.960106 32.846642 65.0625 34.53125 C 64.548239 33.817928 64.003009 33.17648 63.4375 32.59375 A 2.0002 2.0002 0 0 0 62 31.96875 A 2.0002 2.0002 0 0 0 60.5625 35.40625 C 62.145002 37.03694 63.371394 38.758581 63.8125 41.59375 C 62.942454 41.276849 62.032352 41.09375 61.0625 41.09375 C 54.267633 41.09375 49 47.257476 49 54.53125 C 49 61.805022 54.267632 68 61.0625 68 C 62.561101 68 64.287258 67.825664 66 67.09375 C 67.010365 67.525516 68.029769 67.752631 69 67.875 L 69 80 C 69 81.142594 68.142594 82 67 82 L 23 82 C 21.857406 82 21 81.142594 21 80 L 21 33 L 34 33 A 2.0002 2.0002 0 0 0 36 31 L 36 18 z M 32 19.8125 L 32 29 L 22.8125 29 L 32 19.8125 z M 75.75 32.03125 C 76.161747 31.99729 76.557756 32.141881 76.96875 32.15625 C 76.24319 33.235944 75.272245 34.231002 73.875 34.9375 C 72.348094 35.709555 70.692108 35.896782 69.03125 35.84375 C 69.753577 34.759188 70.698894 33.76779 72.09375 33.0625 C 73.241533 32.482139 74.49386 32.134853 75.75 32.03125 z M 25.8125 37 A 2.0021961 2.0021961 0 1 0 26 41 L 50 41 A 2.0002 2.0002 0 1 0 50 37 L 26 37 A 2.0002 2.0002 0 0 0 25.8125 37 z M 67.5 39.875 C 67.999178 39.939484 68.49398 39.987927 69 40 L 69 41.34375 C 68.603831 41.446513 68.219968 41.596484 67.84375 41.75 C 67.76339 41.093847 67.644214 40.470503 67.5 39.875 z M 61.0625 45.09375 C 62.267108 45.09375 63.75907 45.693002 64.6875 46.5 A 2.0002 2.0002 0 0 0 67.3125 46.5 C 68.24093 45.693002 69.732892 45.09375 70.9375 45.09375 C 75.275573 45.09375 79 49.152686 79 54.53125 C 79 59.909812 75.275572 64 70.9375 64 C 69.168134 64 67.940671 63.90374 67.0625 63.34375 A 2.0002 2.0002 0 0 0 64.9375 63.34375 C 64.059325 63.903738 62.831861 64 61.0625 64 C 56.724428 64 53 59.909812 53 54.53125 C 53 49.152686 56.724427 45.09375 61.0625 45.09375 z M 25.8125 46 A 2.0021961 2.0021961 0 1 0 26 50 L 46 50 A 2.0002 2.0002 0 1 0 46 46 L 26 46 A 2.0002 2.0002 0 0 0 25.8125 46 z M 25.8125 54 A 2.0021961 2.0021961 0 1 0 26 58 L 44 58 A 2.0002 2.0002 0 1 0 44 54 L 26 54 A 2.0002 2.0002 0 0 0 25.8125 54 z M 25.8125 63 A 2.0021961 2.0021961 0 1 0 26 67 L 46 67 A 2.0002 2.0002 0 1 0 46 63 L 26 63 A 2.0002 2.0002 0 0 0 25.8125 63 z "></path>
    </g>
    <g id="SvgjsG4475" featurekey="UyNsn2-0"
       transform="matrix(2.3993041995854916,0,0,2.3993041995854916,99.12112314215274,16.003483578382127)"
       fill="#000000">
        <path d="M15.36 5 q0.28 0 0.49 0.21 t0.21 0.49 l0 13.4 q0 0.28 -0.21 0.49 t-0.49 0.21 l-1.52 0 q-0.3 0 -0.5 -0.21 t-0.2 -0.49 l0 -9.04 l-3.7 4.76 q-0.22 0.26 -0.56 0.26 l0 0 q-0.16 0 -0.32 -0.07 t-0.24 -0.21 l-6.56 -8.68 q-0.12 -0.14 -0.14 -0.35 t0.08 -0.38 t0.26 -0.28 t0.36 -0.11 l1.76 0 q0.34 0 0.56 0.28 l4.24 5.6 l4.14 -5.6 q0.22 -0.28 0.58 -0.28 l1.76 0 z M3.84 14.7 q0.28 0 0.49 0.2 t0.21 0.5 l0 3.7 q0 0.28 -0.21 0.49 t-0.49 0.21 l-1.52 0 q-0.28 0 -0.49 -0.21 t-0.21 -0.49 l0 -3.7 q0 -0.3 0.21 -0.5 t0.49 -0.2 l1.52 0 z M29.759999999999998 5 q0.3 0 0.5 0.21 t0.2 0.49 l0 1.44 q0 0.28 -0.2 0.49 t-0.5 0.21 l-7.56 0 l0 3.06 l6.68 0 q0.3 0 0.5 0.21 t0.2 0.49 l0 1.46 q0 0.28 -0.2 0.49 t-0.5 0.21 l-6.68 0 l0 3.08 l7.56 0 q0.3 0 0.5 0.21 t0.2 0.49 l0 1.44 q0 0.28 -0.2 0.49 t-0.5 0.21 l-9.76 0 q-0.28 0 -0.49 -0.21 t-0.21 -0.49 l0 -13.28 q0 -0.28 0.21 -0.49 t0.49 -0.21 l9.76 0 z M40.239999999999995 5.42 l5.6 13.22 q0.1 0.16 0.1 0.34 q0 0.28 -0.2 0.49 t-0.5 0.21 l-1.66 0 q-0.22 0 -0.39 -0.11 t-0.25 -0.31 l-1.46 -3.44 l-5.66 0 l-1.44 3.44 q-0.08 0.2 -0.25 0.31 t-0.39 0.11 l-1.66 0 q-0.18 0 -0.34 -0.09 t-0.25 -0.23 t-0.11 -0.31 t0.06 -0.33 l5.64 -13.3 q0.08 -0.2 0.25 -0.31 t0.39 -0.11 l1.88 0 q0.22 0 0.39 0.11 t0.25 0.31 z M38.66 9.06 l-1.66 3.98 l3.32 0 z M57.1 16.84 q0.3 0 0.5 0.21 t0.2 0.49 l0 1.44 q0 0.28 -0.2 0.49 t-0.5 0.21 l-8.74 0 q-0.28 0 -0.49 -0.21 t-0.21 -0.49 l0 -13.28 q0 -0.28 0.21 -0.49 t0.49 -0.21 l1.5 0 q0.28 0 0.49 0.21 t0.21 0.49 l0 11.14 l6.54 0 z M73.47999999999999 5 q0.28 0 0.49 0.21 t0.21 0.49 l0 13.4 q0 0.28 -0.21 0.49 t-0.49 0.21 l-1.52 0 q-0.3 0 -0.5 -0.21 t-0.2 -0.49 l0 -9.04 l-3.7 4.76 q-0.22 0.26 -0.56 0.26 l0 0 q-0.16 0 -0.32 -0.07 t-0.24 -0.21 l-6.56 -8.68 q-0.12 -0.14 -0.14 -0.35 t0.08 -0.38 t0.26 -0.28 t0.36 -0.11 l1.76 0 q0.34 0 0.56 0.28 l4.24 5.6 l4.14 -5.6 q0.22 -0.28 0.58 -0.28 l1.76 0 z M61.959999999999994 14.7 q0.28 0 0.49 0.2 t0.21 0.5 l0 3.7 q0 0.28 -0.21 0.49 t-0.49 0.21 l-1.52 0 q-0.28 0 -0.49 -0.21 t-0.21 -0.49 l0 -3.7 q0 -0.3 0.21 -0.5 t0.49 -0.2 l1.52 0 z M79.61999999999999 5 q0.28 0 0.49 0.21 t0.21 0.49 l0 13.28 q0 0.28 -0.21 0.49 t-0.49 0.21 l-1.5 0 q-0.28 0 -0.49 -0.21 t-0.21 -0.49 l0 -13.28 q0 -0.28 0.21 -0.49 t0.49 -0.21 l1.5 0 z M95.72 5 q0.28 0 0.49 0.21 t0.21 0.49 l0 13.28 q0 0.28 -0.21 0.49 t-0.49 0.21 l-1.76 0 q-0.34 0 -0.56 -0.28 l-6.94 -9.5 l0 9.08 q0 0.28 -0.21 0.49 t-0.49 0.21 l-1.5 0 q-0.28 0 -0.49 -0.21 t-0.21 -0.49 l0 -13.28 q0 -0.28 0.21 -0.49 t0.49 -0.21 l1.74 0 q0.16 0 0.32 0.07 t0.24 0.21 l6.96 9.46 l0 -9.04 q0 -0.28 0.2 -0.49 t0.48 -0.21 l1.52 0 z M108.5 5.5 q1.24 0.52 2.18 1.48 q2.08 2.12 2.08 5.36 t-2.08 5.36 q-0.94 0.96 -2.18 1.48 q-1.2 0.5 -2.54 0.5 l-5.6 0 q-0.28 0 -0.49 -0.21 t-0.21 -0.49 l0 -13.28 q0 -0.28 0.21 -0.49 t0.49 -0.21 l5.6 0 q1.3 0 2.54 0.5 z M102.55999999999999 7.82 l0 9.04 l3.34 0 q1.76 0 2.86 -1.29 t1.1 -3.23 t-1.1 -3.23 t-2.86 -1.29 l-3.34 0 z"></path>
    </g>
</svg>
